<svg width="32" height="32" viewBox="0 0 32 32" fill="none" xmlns="http://www.w3.org/2000/svg">
<path fill-rule="evenodd" clip-rule="evenodd" d="M24.5261 13.2739C24.9323 13.6856 25.3448 14.1036 25.702 14.5778L25.6146 14.5956C26.191 15.2711 26.6627 16 27.012 16.8178L27.2391 17.28C28.8985 21.3333 27.7631 26.0622 24.619 29.0133C21.8068 31.6444 17.8766 32.3378 14.2085 31.8578C10.7674 31.4133 7.57094 29.2089 5.75434 26.1333C5.19539 25.1911 4.74124 24.1244 4.4967 23.0578C4.19976 22.1689 4.09495 21.28 4.02508 20.3911C3.78054 16.5333 5.33513 12.4444 8.19976 10.0267C6.88972 12.9422 7.20413 16.5867 9.12553 19.1289C9.21286 19.2533 9.28273 19.3422 9.38754 19.4311C9.70195 19.7156 10.1212 19.8222 10.5054 19.6444C10.8548 19.5022 11.1168 19.1467 11.1168 18.7556C11.1168 18.5244 11.0469 18.3467 10.9771 18.1689C8.88098 12.5689 10.6277 6.04444 15.0644 2.34667C16.2871 1.33333 17.7544 0.408889 19.3439 0C17.7544 3.28889 18.2784 7.57333 20.8286 10.1689C21.4251 10.776 22.0832 11.2786 22.7417 11.7816C23.2979 12.2064 23.8545 12.6315 24.3744 13.12C24.4248 13.1713 24.4754 13.2225 24.5261 13.2739ZM18.4006 26.8444C19.012 26.6667 19.798 26.2044 20.2871 25.7778H20.2696C21.3177 24.8 21.929 23.2 21.8766 21.7422C21.8766 21.4756 21.8417 21.2267 21.7718 20.9778C21.4877 19.4047 20.5085 18.5239 19.4933 17.6109C18.9482 17.1206 18.3928 16.6211 17.929 16C17.5273 15.4667 17.1779 14.7911 16.881 14.1156C16.3919 15.3422 16.357 16.4622 16.5666 17.7778C16.6317 18.1706 16.7228 18.5474 16.8125 18.9185C17.0354 19.8406 17.2499 20.7282 17.0382 21.7422C16.6889 23.3244 15.4661 24.8889 13.3875 25.3867C14.5578 26.56 16.4792 27.5556 18.4006 26.8444Z" fill="#FB6D3A"/>
</svg>
